<?xml version="1.0" encoding="UTF-8" standalone="no"?><!DOCTYPE svg PUBLIC "-//W3C//DTD SVG 1.1//EN" "http://www.w3.org/Graphics/SVG/1.1/DTD/svg11.dtd"><svg width="100%" height="100%" viewBox="0 0 22 22" version="1.1" xmlns="http://www.w3.org/2000/svg" xmlns:xlink="http://www.w3.org/1999/xlink" xml:space="preserve" style="fill-rule:evenodd;clip-rule:evenodd;stroke-miterlimit:10;"><clipPath id="_clip1"><path d="M1.301,4.184l0,-1.372c0,-0.757 0.615,-1.372 1.372,-1.372l15.093,0c0.758,0 1.372,0.615 1.372,1.372l0,1.372l-17.837,0Zm16.465,16.465l-15.093,0c-0.757,0 -1.372,-0.614 -1.372,-1.372l0,-13.721l17.837,0l0,13.721c0,0.758 -0.614,1.372 -1.372,1.372Zm-15.093,-20.581c-1.515,0 -2.744,1.229 -2.744,2.744l0,16.465c0,1.516 1.229,2.745 2.744,2.745l15.093,0c1.516,0 2.744,-1.229 2.744,-2.745l0,-16.465c0,-1.515 -1.228,-2.744 -2.744,-2.744l-15.093,0Z"/></clipPath><g clip-path="url(#_clip1)"><rect x="-5.559" y="-5.42" width="31.558" height="32.93" style="fill:#fff;fill-rule:nonzero;"/></g><clipPath id="_clip2"><path d="M5.966,7.752c0.303,0 0.549,0.246 0.549,0.549l0,3.293c0,0.303 -0.246,0.548 -0.549,0.548c-0.303,0 -0.549,-0.245 -0.549,-0.548l0,-3.293c0,-0.303 0.246,-0.549 0.549,-0.549Z"/></clipPath><g clip-path="url(#_clip2)"><path d="M5.966,7.752c0.303,0 0.549,0.246 0.549,0.549l0,3.293c0,0.303 -0.246,0.548 -0.549,0.548c-0.303,0 -0.549,-0.245 -0.549,-0.548l0,-3.293c0,-0.303 0.246,-0.549 0.549,-0.549Z" style="fill:#fff;fill-rule:nonzero;stroke:#fff;stroke-width:2px;"/></g><clipPath id="_clip3"><path d="M15.296,11.594c0,0.303 -0.245,0.548 -0.548,0.548l-8.782,0c-0.303,0 -0.549,-0.245 -0.549,-0.548c0,-0.303 0.246,-0.549 0.549,-0.549l8.782,0c0.303,0 0.548,0.246 0.548,0.549Z"/></clipPath><g clip-path="url(#_clip3)"><path d="M15.296,11.594c0,0.303 -0.245,0.548 -0.548,0.548l-8.782,0c-0.303,0 -0.549,-0.245 -0.549,-0.548c0,-0.303 0.246,-0.549 0.549,-0.549l8.782,0c0.303,0 0.548,0.246 0.548,0.549Z" style="fill:#fff;fill-rule:nonzero;stroke:#fff;stroke-width:2px;"/></g><clipPath id="_clip4"><path d="M15.296,17.082c0,0.303 -0.245,0.549 -0.548,0.549l-4.391,0c-0.303,0 -0.549,-0.246 -0.549,-0.549c0,-0.303 0.246,-0.549 0.549,-0.549l4.391,0c0.303,0 0.548,0.246 0.548,0.549Z"/></clipPath><g clip-path="url(#_clip4)"><path d="M15.296,17.082c0,0.303 -0.245,0.549 -0.548,0.549l-4.391,0c-0.303,0 -0.549,-0.246 -0.549,-0.549c0,-0.303 0.246,-0.549 0.549,-0.549l4.391,0c0.303,0 0.548,0.246 0.548,0.549Z" style="fill:#fff;fill-rule:nonzero;stroke:#fff;stroke-width:2px;"/></g><clipPath id="_clip5"><path d="M10.357,11.045c0.303,0 0.549,0.246 0.549,0.549l0,5.488c0,0.303 -0.246,0.549 -0.549,0.549c-0.303,0 -0.549,-0.246 -0.549,-0.549l0,-5.488c0,-0.303 0.246,-0.549 0.549,-0.549Z"/></clipPath><g clip-path="url(#_clip5)"><path d="M10.357,11.045c0.303,0 0.549,0.246 0.549,0.549l0,5.488c0,0.303 -0.246,0.549 -0.549,0.549c-0.303,0 -0.549,-0.246 -0.549,-0.549l0,-5.488c0,-0.303 0.246,-0.549 0.549,-0.549Z" style="fill:#fff;fill-rule:nonzero;stroke:#fff;stroke-width:2px;"/></g></svg>