<?xml version="1.0" encoding="UTF-8" standalone="no"?><!DOCTYPE svg PUBLIC "-//W3C//DTD SVG 1.1//EN" "http://www.w3.org/Graphics/SVG/1.1/DTD/svg11.dtd"><svg width="100%" height="100%" viewBox="0 0 22 22" version="1.1" xmlns="http://www.w3.org/2000/svg" xmlns:xlink="http://www.w3.org/1999/xlink" xml:space="preserve" style="fill-rule:evenodd;clip-rule:evenodd;stroke-linejoin:round;stroke-miterlimit:1.41421;"><clipPath id="_clip1"><path d="M5.5,6.875c-0.759,0 -1.375,-0.616 -1.375,-1.375c0,-0.759 0.616,-1.375 1.375,-1.375c0.759,0 1.375,0.616 1.375,1.375c0,0.759 -0.616,1.375 -1.375,1.375Zm0,-4.125c-1.519,0 -2.75,1.231 -2.75,2.75c0,1.519 1.231,2.75 2.75,2.75c1.519,0 2.75,-1.231 2.75,-2.75c0,-1.519 -1.231,-2.75 -2.75,-2.75Zm15.125,9.026l-4.125,-4.213l-6.834,6.951l-2.791,-2.827l-5.5,5.045l0,-13.982c0,-0.759 0.616,-1.375 1.375,-1.375l16.5,0c0.759,0 1.375,0.616 1.375,1.375l0,9.026Zm0,7.474c0,0.759 -0.616,1.375 -1.375,1.375l-3.553,0l-5.065,-5.132l5.868,-5.869l4.125,4.125l0,5.501Zm-17.875,1.375c-0.759,0 -1.375,-0.616 -1.375,-1.375l0,-0.646l5.462,-4.892l6.914,6.913l-11.001,0Zm16.5,-20.625l-16.5,0c-1.519,0 -2.75,1.231 -2.75,2.75l0,16.5c0,1.519 1.231,2.75 2.75,2.75l16.5,0c1.519,0 2.75,-1.231 2.75,-2.75l0,-16.5c0,-1.519 -1.231,-2.75 -2.75,-2.75Z"/></clipPath><g clip-path="url(#_clip1)"><rect x="-5.5" y="-5.5" width="33" height="33" style="fill:#fffffe;fill-rule:nonzero;"/></g></svg>