<?xml version="1.0" encoding="UTF-8" standalone="no"?>
<!DOCTYPE svg PUBLIC "-//W3C//DTD SVG 1.1//EN" "http://www.w3.org/Graphics/SVG/1.1/DTD/svg11.dtd">
<svg width="100%" height="100%" viewBox="0 0 22 22" version="1.1" xmlns="http://www.w3.org/2000/svg" xmlns:xlink="http://www.w3.org/1999/xlink" xml:space="preserve" xmlns:serif="http://www.serif.com/" style="fill-rule:evenodd;clip-rule:evenodd;stroke-linejoin:round;stroke-miterlimit:1.41421;">
    <g transform="matrix(0.0206998,0,0,0.0202901,1.793,0.853928)">
        <path d="M671.1,535.4C659.9,535.4 650.9,544.5 650.9,555.6L650.9,778.4L359.3,778.4L359.3,201.3C359.3,194 355.4,187.3 349,183.7L109,47.6L650.9,47.6L650.9,328.5C650.9,339.7 659.9,348.7 671.1,348.7C682.3,348.7 691.3,339.6 691.3,328.5L691.3,27.4C691.3,16.2 682.3,7.2 671.1,7.2L30.2,7.2C19,7.1 10,16.2 10,27.4L10,798.7C10,808.1 16.5,815.6 25.2,817.9L329.1,990.3C332.2,992.1 335.6,992.9 339.1,992.9C342.6,992.9 346.1,992 349.3,990.1C355.5,986.5 359.4,979.8 359.4,972.6L359.4,818.9L671.2,818.9C682.4,818.9 691.4,809.8 691.4,798.7L691.4,555.7C691.3,544.5 682.3,535.4 671.1,535.4ZM318.8,937.9L52.5,786.9L52.5,62.1L318.8,213.1L318.8,937.9Z" style="fill:rgb(87,95,113);fill-rule:nonzero;stroke:rgb(87,95,113);stroke-width:34.15px;"/>
    </g>
    <g transform="matrix(0.0161525,0,0,0.0158328,5.00905,2.86501)">
        <path d="M988.4,449.9C989.4,447.5 990,444.8 990,442.1C990,439.4 989.5,436.8 988.4,434.3C987.4,431.8 985.9,429.6 984,427.8L844.4,288.1C836.5,280.2 823.7,280.2 815.8,288.1C807.9,296 807.9,308.8 815.8,316.7L921,421.9L470.4,421.9C459.2,421.9 450.2,431 450.2,442.1C450.2,453.3 459.2,462.3 470.4,462.3L920.9,462.3L815.8,567.5C807.9,575.4 807.9,588.2 815.8,596.1C819.7,600 824.9,602 830.1,602C835.3,602 840.5,600 844.4,596.1L984.1,456.4C985.9,454.5 987.4,452.3 988.4,449.9Z" style="fill:rgb(87,95,113);fill-rule:nonzero;stroke:rgb(87,95,113);stroke-width:50.02px;"/>
    </g>
</svg>
