<?xml version="1.0" encoding="UTF-8" standalone="no"?><!DOCTYPE svg PUBLIC "-//W3C//DTD SVG 1.1//EN" "http://www.w3.org/Graphics/SVG/1.1/DTD/svg11.dtd"><svg width="100%" height="100%" viewBox="0 0 22 22" version="1.1" xmlns="http://www.w3.org/2000/svg" xmlns:xlink="http://www.w3.org/1999/xlink" xml:space="preserve" style="fill-rule:evenodd;clip-rule:evenodd;stroke-linejoin:round;stroke-miterlimit:1.41421;"><clipPath id="_clip1"><path d="M21.928,12.285c-0.077,0.677 -0.648,1.188 -1.329,1.192l-0.083,0l-0.1,0c-0.612,0.003 -1.158,0.382 -1.375,0.953c-0.218,0.571 -0.061,1.217 0.394,1.626c0.523,0.482 0.586,1.285 0.146,1.843c-0.526,0.654 -1.125,1.244 -1.787,1.76c-0.236,0.184 -0.526,0.285 -0.825,0.286c-0.38,-0.001 -0.741,-0.159 -1,-0.437c-0.3,-0.309 -0.714,-0.482 -1.146,-0.477c-0.175,-0.001 -0.349,0.031 -0.513,0.096c-0.572,0.24 -0.937,0.809 -0.917,1.43c0.023,0.705 -0.5,1.309 -1.201,1.388c-0.822,0.091 -1.653,0.089 -2.475,-0.007c-0.708,-0.082 -1.228,-0.706 -1.182,-1.418c0.031,-0.626 -0.331,-1.206 -0.908,-1.453c-0.166,-0.067 -0.343,-0.101 -0.522,-0.1c-0.431,-0.003 -0.845,0.169 -1.146,0.477c-0.482,0.53 -1.293,0.595 -1.852,0.147c-0.643,-0.52 -1.224,-1.112 -1.733,-1.763c-0.44,-0.552 -0.376,-1.35 0.147,-1.825c0.456,-0.421 0.605,-1.081 0.376,-1.658c-0.22,-0.544 -0.743,-0.904 -1.33,-0.917l-0.055,0c-0.708,0.01 -1.319,-0.498 -1.439,-1.196c-0.101,-0.831 -0.101,-1.671 0,-2.502c0.073,-0.697 0.675,-1.219 1.375,-1.192c0.634,0.025 1.222,-0.331 1.495,-0.903c0.239,-0.581 0.089,-1.25 -0.376,-1.672c-0.523,-0.481 -0.587,-1.284 -0.147,-1.842c0.524,-0.653 1.121,-1.243 1.778,-1.76c0.24,-0.185 0.533,-0.286 0.835,-0.287c0.38,0.001 0.742,0.16 0.999,0.44c0.302,0.307 0.715,0.478 1.146,0.474c0.175,0.001 0.349,-0.03 0.513,-0.092c0.573,-0.241 0.938,-0.811 0.917,-1.433c-0.022,-0.704 0.501,-1.308 1.201,-1.386c0.823,-0.091 1.653,-0.089 2.475,0.006c0.708,0.084 1.228,0.706 1.183,1.418c-0.035,0.628 0.328,1.21 0.907,1.455c0.167,0.066 0.344,0.099 0.523,0.099c0.431,0.003 0.844,-0.169 1.146,-0.476c0.478,-0.529 1.285,-0.594 1.842,-0.149c0.647,0.518 1.231,1.109 1.742,1.761c0.443,0.554 0.379,1.357 -0.146,1.834c-0.457,0.413 -0.61,1.066 -0.383,1.639c0.226,0.573 0.784,0.945 1.4,0.934c0.704,-0.006 1.309,0.498 1.43,1.192c0.096,0.829 0.096,1.666 0,2.495Zm-1.815,-2.129c-1.17,-0.028 -2.212,-0.744 -2.657,-1.827c-0.445,-1.082 -0.208,-2.324 0.604,-3.167c-0.358,-0.439 -0.757,-0.843 -1.192,-1.205c-0.57,0.531 -1.32,0.826 -2.1,0.825c-0.374,0.002 -0.745,-0.071 -1.09,-0.214c-1.087,-0.46 -1.797,-1.521 -1.806,-2.702c-0.565,-0.052 -1.132,-0.052 -1.696,0c-0.064,1.137 -0.817,2.119 -1.898,2.476c-0.307,0.194 -0.65,0.324 -1.008,0.382c-0.775,0.001 -1.522,-0.291 -2.091,-0.817c-0.447,0.362 -0.859,0.766 -1.228,1.207c0.821,0.849 1.059,2.104 0.605,3.194c-0.473,1.072 -1.524,1.775 -2.695,1.803c-0.054,0.573 -0.057,1.149 -0.009,1.723c1.172,0.023 2.219,0.739 2.665,1.824c0.446,1.085 0.206,2.331 -0.612,3.171c0.362,0.436 0.761,0.839 1.192,1.207c0.571,-0.529 1.321,-0.823 2.099,-0.825c0.378,-0.003 0.752,0.07 1.1,0.214c1.088,0.458 1.798,1.52 1.806,2.7c0.564,0.053 1.132,0.053 1.696,0c0.037,-1.165 0.75,-2.201 1.825,-2.652c0.34,-0.137 0.705,-0.207 1.072,-0.205c0.778,-0.003 1.528,0.289 2.099,0.817c0.445,-0.365 0.856,-0.769 1.229,-1.207c-0.826,-0.846 -1.064,-2.104 -0.605,-3.194c0.463,-1.082 1.518,-1.791 2.695,-1.81c0.055,-0.572 0.055,-1.149 0,-1.722l0,0.004Zm-9.112,4.513c-1.487,0.006 -2.831,-0.885 -3.404,-2.257c-0.573,-1.372 -0.262,-2.954 0.787,-4.007c1.049,-1.054 2.63,-1.371 4.004,-0.803c1.374,0.568 2.27,1.908 2.27,3.394c0.004,2.024 -1.634,3.668 -3.657,3.673Zm0,-5.493c-1.012,0.005 -1.828,0.828 -1.825,1.839c0.004,1.012 0.825,1.829 1.837,1.828c1.011,-0.002 1.83,-0.823 1.83,-1.834c0.001,-0.488 -0.194,-0.956 -0.54,-1.3c-0.345,-0.345 -0.814,-0.537 -1.302,-0.534l0,0.001Z"/></clipPath><g clip-path="url(#_clip1)"><rect x="-4.586" y="-4.573" width="31.17" height="31.169" style="fill:#ffffff;fill-rule:nonzero;"/></g></svg>