<?xml version="1.0" encoding="UTF-8" standalone="no"?>
<!DOCTYPE svg PUBLIC "-//W3C//DTD SVG 1.1//EN" "http://www.w3.org/Graphics/SVG/1.1/DTD/svg11.dtd">
<svg width="100%" height="100%" viewBox="0 0 22 22" version="1.1" xmlns="http://www.w3.org/2000/svg" xmlns:xlink="http://www.w3.org/1999/xlink" xml:space="preserve" xmlns:serif="http://www.serif.com/" style="fill-rule:evenodd;clip-rule:evenodd;stroke-linejoin:round;stroke-miterlimit:1.41421;">
    <path d="M18.033,7.572C18.033,8.202 17.345,8.99 16.714,8.99L14.428,8.99C13.798,8.99 12.979,8.202 12.979,7.572L12.979,5.286C12.979,4.655 13.798,3.973 14.428,3.973L16.714,3.973C17.345,3.973 18.033,4.655 18.033,5.286L18.033,7.572ZM16.714,3L14.428,3C13.167,3 12.03,4.023 12.03,5.286L12.03,7.572C12.03,8.833 13.167,9.998 14.428,9.998L16.714,9.998C17.977,9.998 19,8.833 19,7.572L19,5.286C19,4.023 17.977,3 16.714,3ZM17.991,16.714C17.991,17.345 17.345,18.002 16.714,18.002L14.428,18.002C13.798,18.002 13.008,17.345 13.008,16.714L13.008,14.428C13.008,13.798 13.798,13.002 14.428,13.002L16.714,13.002C17.345,13.002 17.991,13.798 17.991,14.428L17.991,16.714ZM16.714,12.001L14.428,12.001C13.167,12.001 12.031,13.167 12.031,14.428L12.031,16.714C12.031,17.977 13.167,19 14.428,19L16.714,19C17.977,19 19,17.977 19,16.714L19,14.428C19,13.167 17.977,12.001 16.714,12.001ZM8.964,7.687C8.964,8.317 8.328,8.992 7.698,8.992L5.286,8.992C4.655,8.992 4.013,8.317 4.013,7.687L4.013,5.286C4.013,4.655 4.655,3.979 5.286,3.979L7.572,3.979C8.202,3.979 8.964,4.655 8.964,5.286L8.964,7.687ZM7.572,3L5.286,3C4.023,3 3,4.023 3,5.286L3,7.687C3,8.948 4.023,9.972 5.286,9.972L7.698,9.972C8.397,9.972 8.898,9.657 9.317,9.161C9.654,8.763 9.982,8.249 9.982,7.687L9.982,5.286C9.982,4.023 8.833,3 7.572,3ZM9.016,16.714C9.016,17.345 8.202,17.982 7.572,17.982L5.286,17.982C4.655,17.982 3.987,17.345 3.987,16.714L3.987,14.428C3.987,13.798 4.655,13.011 5.286,13.011L7.572,13.011C8.202,13.011 9.016,13.798 9.016,14.428L9.016,16.714ZM7.572,12.007L5.286,12.007C4.023,12.007 3,13.167 3,14.428L3,16.714C3,17.977 4.023,19 5.286,19L7.572,19C8.833,19 9.971,17.977 9.971,16.714L9.971,14.428C9.971,13.167 8.833,12.007 7.572,12.007Z" style="fill:rgb(87,95,113);"/>
</svg>
