<?xml version="1.0" encoding="UTF-8" standalone="no"?>
<!DOCTYPE svg PUBLIC "-//W3C//DTD SVG 1.1//EN" "http://www.w3.org/Graphics/SVG/1.1/DTD/svg11.dtd">
<svg width="100%" height="100%" viewBox="0 0 22 22" version="1.1" xmlns="http://www.w3.org/2000/svg" xmlns:xlink="http://www.w3.org/1999/xlink" xml:space="preserve" xmlns:serif="http://www.serif.com/" style="fill-rule:evenodd;clip-rule:evenodd;stroke-linejoin:round;stroke-miterlimit:1.41421;">
    <clipPath id="_clip1">
        <path d="M21.928,12.285C21.851,12.962 21.28,13.473 20.599,13.477L20.516,13.477L20.416,13.477C19.804,13.48 19.258,13.859 19.041,14.43C18.823,15.001 18.98,15.647 19.435,16.056C19.958,16.538 20.021,17.341 19.581,17.899C19.055,18.553 18.456,19.143 17.794,19.659C17.558,19.843 17.268,19.944 16.969,19.945C16.589,19.944 16.228,19.786 15.969,19.508C15.669,19.199 15.255,19.026 14.823,19.031C14.648,19.03 14.474,19.062 14.31,19.127C13.738,19.367 13.373,19.936 13.393,20.557C13.416,21.262 12.893,21.866 12.192,21.945C11.37,22.036 10.539,22.034 9.717,21.938C9.009,21.856 8.489,21.232 8.535,20.52C8.566,19.894 8.204,19.314 7.627,19.067C7.461,19 7.284,18.966 7.105,18.967C6.674,18.964 6.26,19.136 5.959,19.444C5.477,19.974 4.666,20.039 4.107,19.591C3.464,19.071 2.883,18.479 2.374,17.828C1.934,17.276 1.998,16.478 2.521,16.003C2.977,15.582 3.126,14.922 2.897,14.345C2.677,13.801 2.154,13.441 1.567,13.428L1.512,13.428C0.804,13.438 0.193,12.93 0.073,12.232C-0.028,11.401 -0.028,10.561 0.073,9.73C0.146,9.033 0.748,8.511 1.448,8.538C2.082,8.563 2.67,8.207 2.943,7.635C3.182,7.054 3.032,6.385 2.567,5.963C2.044,5.482 1.98,4.679 2.42,4.121C2.944,3.468 3.541,2.878 4.198,2.361C4.438,2.176 4.731,2.075 5.033,2.074C5.413,2.075 5.775,2.234 6.032,2.514C6.334,2.821 6.747,2.992 7.178,2.988C7.353,2.989 7.527,2.958 7.691,2.896C8.264,2.655 8.629,2.085 8.608,1.463C8.586,0.759 9.109,0.155 9.809,0.077C10.632,-0.014 11.462,-0.012 12.284,0.083C12.992,0.167 13.512,0.789 13.467,1.501C13.432,2.129 13.795,2.711 14.374,2.956C14.541,3.022 14.718,3.055 14.897,3.055C15.328,3.058 15.741,2.886 16.043,2.579C16.521,2.05 17.328,1.985 17.885,2.43C18.532,2.948 19.116,3.539 19.627,4.191C20.07,4.745 20.006,5.548 19.481,6.025C19.024,6.438 18.871,7.091 19.098,7.664C19.324,8.237 19.882,8.609 20.498,8.598C21.202,8.592 21.807,9.096 21.928,9.79C22.024,10.619 22.024,11.456 21.928,12.285ZM20.113,10.156C18.943,10.128 17.901,9.412 17.456,8.329C17.011,7.247 17.248,6.005 18.06,5.162C17.702,4.723 17.303,4.319 16.868,3.957C16.298,4.488 15.548,4.783 14.768,4.782C14.394,4.784 14.023,4.711 13.678,4.568C12.591,4.108 11.881,3.047 11.872,1.866C11.307,1.814 10.74,1.814 10.176,1.866C10.112,3.003 9.359,3.985 8.278,4.342C7.971,4.536 7.628,4.666 7.27,4.724C6.495,4.725 5.748,4.433 5.179,3.907C4.732,4.269 4.32,4.673 3.951,5.114C4.772,5.963 5.01,7.218 4.556,8.308C4.083,9.38 3.032,10.083 1.861,10.111C1.807,10.684 1.804,11.26 1.852,11.834C3.024,11.857 4.071,12.573 4.517,13.658C4.963,14.743 4.723,15.989 3.905,16.829C4.267,17.265 4.666,17.668 5.097,18.036C5.668,17.507 6.418,17.213 7.196,17.211C7.574,17.208 7.948,17.281 8.296,17.425C9.384,17.883 10.094,18.945 10.102,20.125C10.666,20.178 11.234,20.178 11.798,20.125C11.835,18.96 12.548,17.924 13.623,17.473C13.963,17.336 14.328,17.266 14.695,17.268C15.473,17.265 16.223,17.557 16.794,18.085C17.239,17.72 17.65,17.316 18.023,16.878C17.197,16.032 16.959,14.774 17.418,13.684C17.881,12.602 18.936,11.893 20.113,11.874C20.168,11.302 20.168,10.725 20.113,10.152L20.113,10.156ZM11.001,14.669C9.514,14.675 8.17,13.784 7.597,12.412C7.024,11.04 7.335,9.458 8.384,8.405C9.433,7.351 11.014,7.034 12.388,7.602C13.762,8.17 14.658,9.51 14.658,10.996C14.662,13.02 13.024,14.664 11.001,14.669ZM11.001,9.176C9.989,9.181 9.173,10.004 9.176,11.015C9.18,12.027 10.001,12.844 11.013,12.843C12.024,12.841 12.843,12.02 12.843,11.009C12.844,10.521 12.649,10.053 12.303,9.709C11.958,9.364 11.489,9.172 11.001,9.175L11.001,9.176Z"/>
    </clipPath>
    <g clip-path="url(#_clip1)">
        <rect x="-4.586" y="-4.573" width="31.17" height="31.169" style="fill:rgb(87,95,113);"/>
    </g>
</svg>
