<?xml version="1.0" encoding="UTF-8" standalone="no"?>
<!DOCTYPE svg PUBLIC "-//W3C//DTD SVG 1.1//EN" "http://www.w3.org/Graphics/SVG/1.1/DTD/svg11.dtd">
<svg width="100%" height="100%" viewBox="0 0 22 22" version="1.1" xmlns="http://www.w3.org/2000/svg" xmlns:xlink="http://www.w3.org/1999/xlink" xml:space="preserve" xmlns:serif="http://www.serif.com/" style="fill-rule:evenodd;clip-rule:evenodd;stroke-linejoin:round;stroke-miterlimit:1.41421;">
    <path d="M18.2,10.013L3.8,10.013C3.358,10.013 3,10.571 3,11C3,11.43 3.358,11.967 3.8,11.967L18.2,11.967C18.642,11.967 19,11.43 19,11C19,10.571 18.642,10.013 18.2,10.013ZM18.2,16.017L3.8,16.017C3.358,16.017 3,16.793 3,17.222C3,17.652 3.358,18 3.8,18L18.2,18C18.642,18 19,17.652 19,17.222C19,16.793 18.642,16.017 18.2,16.017ZM3.8,5.966L18.2,5.966C18.642,5.966 19,5.208 19,4.778C19,4.348 18.642,4 18.2,4L3.8,4C3.358,4 3,4.348 3,4.778C3,5.208 3.358,5.966 3.8,5.966Z" style="fill:white;"/>
</svg>
