<?xml version="1.0" encoding="UTF-8" standalone="no"?>
<!DOCTYPE svg PUBLIC "-//W3C//DTD SVG 1.1//EN" "http://www.w3.org/Graphics/SVG/1.1/DTD/svg11.dtd">
<svg width="100%" height="100%" viewBox="0 0 22 22" version="1.1" xmlns="http://www.w3.org/2000/svg" xmlns:xlink="http://www.w3.org/1999/xlink" xml:space="preserve" xmlns:serif="http://www.serif.com/" style="fill-rule:evenodd;clip-rule:evenodd;stroke-linejoin:round;stroke-miterlimit:1.41421;">
    <clipPath id="_clip1">
        <path d="M4.125,15.125L5.5,15.125L5.5,16.5L4.125,16.5L4.125,15.125ZM4.813,17.875C5.952,17.875 6.875,16.952 6.875,15.813C6.875,14.674 5.952,13.75 4.812,13.75C3.673,13.75 2.75,14.674 2.75,15.813C2.75,16.952 3.673,17.875 4.813,17.875ZM9.625,15.125L11,15.125L11,16.5L9.625,16.5L9.625,15.125ZM10.313,17.875C11.452,17.875 12.375,16.952 12.375,15.813C12.375,14.674 11.452,13.75 10.313,13.75C9.173,13.75 8.25,14.674 8.25,15.813C8.25,16.952 9.173,17.875 10.313,17.875ZM4.125,9.625L5.5,9.625L5.5,11L4.125,11L4.125,9.625ZM4.812,12.375C5.952,12.375 6.875,11.452 6.875,10.312C6.875,9.174 5.952,8.25 4.812,8.25C3.673,8.25 2.75,9.174 2.75,10.313C2.75,11.452 3.673,12.375 4.812,12.375ZM9.625,9.625L11,9.625L11,11L9.625,11L9.625,9.625ZM10.313,12.375C11.452,12.375 12.375,11.452 12.375,10.312C12.375,9.174 11.452,8.25 10.313,8.25C9.173,8.25 8.25,9.174 8.25,10.313C8.25,11.452 9.173,12.375 10.313,12.375ZM19.25,4.125L1.375,4.125L1.375,2.75C1.375,1.991 1.991,1.375 2.75,1.375L17.875,1.375C18.634,1.375 19.25,1.991 19.25,2.75L19.25,4.125ZM19.25,19.25C19.25,20.009 18.634,20.625 17.875,20.625L2.75,20.625C1.991,20.625 1.375,20.009 1.375,19.25L1.375,5.5L19.25,5.5L19.25,19.25ZM17.875,0L2.75,0C1.231,0 0,1.231 0,2.75L0,19.25C0,20.769 1.231,22 2.75,22L17.875,22C19.394,22 20.625,20.769 20.625,19.25L20.625,2.75C20.625,1.231 19.394,0 17.875,0ZM15.125,15.125L16.5,15.125L16.5,16.5L15.125,16.5L15.125,15.125ZM15.813,17.875C16.952,17.875 17.875,16.952 17.875,15.813C17.875,14.674 16.952,13.75 15.813,13.75C14.673,13.75 13.75,14.674 13.75,15.813C13.75,16.952 14.673,17.875 15.813,17.875ZM15.125,9.625L16.5,9.625L16.5,11L15.125,11L15.125,9.625ZM15.813,12.375C16.952,12.375 17.875,11.452 17.875,10.312C17.875,9.174 16.952,8.25 15.813,8.25C14.673,8.25 13.75,9.174 13.75,10.313C13.75,11.452 14.673,12.375 15.813,12.375Z"/>
    </clipPath>
    <g clip-path="url(#_clip1)">
        <rect x="-5.5" y="-5.5" width="31.625" height="33" style="fill:rgb(87,95,113);"/>
    </g>
</svg>
