<?xml version="1.0" encoding="UTF-8" standalone="no"?><!DOCTYPE svg PUBLIC "-//W3C//DTD SVG 1.1//EN" "http://www.w3.org/Graphics/SVG/1.1/DTD/svg11.dtd"><svg width="100%" height="100%" viewBox="0 0 22 22" version="1.1" xmlns="http://www.w3.org/2000/svg" xmlns:xlink="http://www.w3.org/1999/xlink" xml:space="preserve" style="fill-rule:evenodd;clip-rule:evenodd;stroke-miterlimit:10;"><clipPath id="_clip1"><path d="M16.507,5.52l-10.987,0c-0.38,0 -0.687,0.307 -0.687,0.686c0,0.38 0.307,0.687 0.687,0.687l10.987,0c0.38,0 0.687,-0.307 0.687,-0.687c0,-0.379 -0.307,-0.686 -0.687,-0.686Zm4.12,13.734c0,0.754 -0.746,1.381 -1.499,1.381l-16.373,0c-0.753,0 -1.365,-0.611 -1.365,-1.366l0,-16.383c0,-0.755 0.629,-1.487 1.383,-1.487l16.481,0c0.754,0 1.373,0.62 1.373,1.374l0,16.481Zm-17.854,-19.228c-1.507,0 -2.747,1.352 -2.747,2.86l0,16.383c0,1.509 1.222,2.731 2.729,2.731l16.373,0c1.507,0 2.872,-1.238 2.872,-2.746l0,-16.481c0,-1.508 -1.24,-2.747 -2.746,-2.747l-16.481,0Zm6.089,13.734l-3.663,0c-0.126,0 -0.229,0.308 -0.229,0.687c0,0.379 0.103,0.686 0.229,0.686l3.663,0c0.126,0 0.228,-0.307 0.228,-0.686c0,-0.379 -0.102,-0.687 -0.228,-0.687Zm0,-3.846l-3.663,0c-0.126,0 -0.229,0.308 -0.229,0.687c0,0.38 0.103,0.687 0.229,0.687l3.663,0c0.126,0 0.228,-0.307 0.228,-0.687c0,-0.379 -0.102,-0.687 -0.228,-0.687Z"/></clipPath><g clip-path="url(#_clip1)"><rect x="-5.468" y="-5.468" width="32.962" height="32.962" style="fill:#fff;fill-rule:nonzero;"/></g><clipPath id="_clip2"><path d="M12.112,9.914l4.395,0c0.607,0 1.099,0.492 1.099,1.099l0,3.296c0,0.607 -0.492,1.099 -1.099,1.099l-4.395,0c-0.607,0 -1.099,-0.492 -1.099,-1.099l0,-3.296c0,-0.607 0.492,-1.099 1.099,-1.099Z"/></clipPath><g clip-path="url(#_clip2)"><path d="M12.112,9.914l4.395,0c0.607,0 1.099,0.492 1.099,1.099l0,3.296c0,0.607 -0.492,1.099 -1.099,1.099l-4.395,0c-0.607,0 -1.099,-0.492 -1.099,-1.099l0,-3.296c0,-0.607 0.492,-1.099 1.099,-1.099Z" style="fill:#fff;fill-rule:nonzero;stroke:#fff;stroke-width:2px;"/></g></svg>