<?xml version="1.0" encoding="UTF-8" standalone="no"?>
<!DOCTYPE svg PUBLIC "-//W3C//DTD SVG 1.1//EN" "http://www.w3.org/Graphics/SVG/1.1/DTD/svg11.dtd">
<svg width="100%" height="100%" viewBox="0 0 22 22" version="1.1" xmlns="http://www.w3.org/2000/svg" xmlns:xlink="http://www.w3.org/1999/xlink" xml:space="preserve" xmlns:serif="http://www.serif.com/" style="fill-rule:evenodd;clip-rule:evenodd;stroke-miterlimit:10;">
    <clipPath id="_clip1">
        <path d="M1.301,4.184L1.301,2.812C1.301,2.055 1.916,1.44 2.673,1.44L17.766,1.44C18.524,1.44 19.138,2.055 19.138,2.812L19.138,4.184L1.301,4.184ZM17.766,20.649L2.673,20.649C1.916,20.649 1.301,20.035 1.301,19.277L1.301,5.556L19.138,5.556L19.138,19.277C19.138,20.035 18.524,20.649 17.766,20.649ZM2.673,0.068C1.158,0.068 -0.071,1.297 -0.071,2.812L-0.071,19.277C-0.071,20.793 1.158,22.022 2.673,22.022L17.766,22.022C19.282,22.022 20.51,20.793 20.51,19.277L20.51,2.812C20.51,1.297 19.282,0.068 17.766,0.068L2.673,0.068Z"/>
    </clipPath>
    <g clip-path="url(#_clip1)">
        <rect x="-5.559" y="-5.42" width="31.558" height="32.93" style="fill:rgb(87,95,113);"/>
    </g>
    <clipPath id="_clip2">
        <path d="M5.966,7.752C6.269,7.752 6.515,7.998 6.515,8.301L6.515,11.594C6.515,11.897 6.269,12.142 5.966,12.142C5.663,12.142 5.417,11.897 5.417,11.594L5.417,8.301C5.417,7.998 5.663,7.752 5.966,7.752Z"/>
    </clipPath>
    <g clip-path="url(#_clip2)">
        <path d="M5.966,7.752C6.269,7.752 6.515,7.998 6.515,8.301L6.515,11.594C6.515,11.897 6.269,12.142 5.966,12.142C5.663,12.142 5.417,11.897 5.417,11.594L5.417,8.301C5.417,7.998 5.663,7.752 5.966,7.752Z" style="fill:rgb(87,95,113);fill-rule:nonzero;stroke:rgb(87,95,113);stroke-width:2px;"/>
    </g>
    <clipPath id="_clip3">
        <path d="M15.296,11.594C15.296,11.897 15.051,12.142 14.748,12.142L5.966,12.142C5.663,12.142 5.417,11.897 5.417,11.594C5.417,11.291 5.663,11.045 5.966,11.045L14.748,11.045C15.051,11.045 15.296,11.291 15.296,11.594Z"/>
    </clipPath>
    <g clip-path="url(#_clip3)">
        <path d="M15.296,11.594C15.296,11.897 15.051,12.142 14.748,12.142L5.966,12.142C5.663,12.142 5.417,11.897 5.417,11.594C5.417,11.291 5.663,11.045 5.966,11.045L14.748,11.045C15.051,11.045 15.296,11.291 15.296,11.594Z" style="fill:rgb(87,95,113);fill-rule:nonzero;stroke:rgb(87,95,113);stroke-width:2px;"/>
    </g>
    <clipPath id="_clip4">
        <path d="M15.296,17.082C15.296,17.385 15.051,17.631 14.748,17.631L10.357,17.631C10.054,17.631 9.808,17.385 9.808,17.082C9.808,16.779 10.054,16.533 10.357,16.533L14.748,16.533C15.051,16.533 15.296,16.779 15.296,17.082Z"/>
    </clipPath>
    <g clip-path="url(#_clip4)">
        <path d="M15.296,17.082C15.296,17.385 15.051,17.631 14.748,17.631L10.357,17.631C10.054,17.631 9.808,17.385 9.808,17.082C9.808,16.779 10.054,16.533 10.357,16.533L14.748,16.533C15.051,16.533 15.296,16.779 15.296,17.082Z" style="fill:rgb(87,95,113);fill-rule:nonzero;stroke:rgb(87,95,113);stroke-width:2px;"/>
    </g>
    <clipPath id="_clip5">
        <path d="M10.357,11.045C10.66,11.045 10.906,11.291 10.906,11.594L10.906,17.082C10.906,17.385 10.66,17.631 10.357,17.631C10.054,17.631 9.808,17.385 9.808,17.082L9.808,11.594C9.808,11.291 10.054,11.045 10.357,11.045Z"/>
    </clipPath>
    <g clip-path="url(#_clip5)">
        <path d="M10.357,11.045C10.66,11.045 10.906,11.291 10.906,11.594L10.906,17.082C10.906,17.385 10.66,17.631 10.357,17.631C10.054,17.631 9.808,17.385 9.808,17.082L9.808,11.594C9.808,11.291 10.054,11.045 10.357,11.045Z" style="fill:rgb(87,95,113);fill-rule:nonzero;stroke:rgb(87,95,113);stroke-width:2px;"/>
    </g>
</svg>
