<?xml version="1.0" encoding="UTF-8" standalone="no"?>
<!DOCTYPE svg PUBLIC "-//W3C//DTD SVG 1.1//EN" "http://www.w3.org/Graphics/SVG/1.1/DTD/svg11.dtd">
<svg width="100%" height="100%" viewBox="0 0 22 22" version="1.1" xmlns="http://www.w3.org/2000/svg" xmlns:xlink="http://www.w3.org/1999/xlink" xml:space="preserve" xmlns:serif="http://www.serif.com/" style="fill-rule:evenodd;clip-rule:evenodd;stroke-linejoin:round;stroke-miterlimit:1.41421;">
    <clipPath id="_clip1">
        <path d="M5.5,6.875C4.741,6.875 4.125,6.259 4.125,5.5C4.125,4.741 4.741,4.125 5.5,4.125C6.259,4.125 6.875,4.741 6.875,5.5C6.875,6.259 6.259,6.875 5.5,6.875ZM5.5,2.75C3.981,2.75 2.75,3.981 2.75,5.5C2.75,7.019 3.981,8.25 5.5,8.25C7.019,8.25 8.25,7.019 8.25,5.5C8.25,3.981 7.019,2.75 5.5,2.75ZM20.625,11.776L16.5,7.563L9.666,14.514L6.875,11.687L1.375,16.732L1.375,2.75C1.375,1.991 1.991,1.375 2.75,1.375L19.25,1.375C20.009,1.375 20.625,1.991 20.625,2.75L20.625,11.776ZM20.625,19.25C20.625,20.009 20.009,20.625 19.25,20.625L15.697,20.625L10.632,15.493L16.5,9.624L20.625,13.749L20.625,19.25ZM2.75,20.625C1.991,20.625 1.375,20.009 1.375,19.25L1.375,18.604L6.837,13.712L13.751,20.625L2.75,20.625ZM19.25,0L2.75,0C1.231,0 0,1.231 0,2.75L0,19.25C0,20.769 1.231,22 2.75,22L19.25,22C20.769,22 22,20.769 22,19.25L22,2.75C22,1.231 20.769,0 19.25,0Z"/>
    </clipPath>
    <g clip-path="url(#_clip1)">
        <rect x="-5.5" y="-5.5" width="33" height="33" style="fill:rgb(87,95,113);"/>
    </g>
</svg>
