<?xml version="1.0" encoding="UTF-8" standalone="no"?><!DOCTYPE svg PUBLIC "-//W3C//DTD SVG 1.1//EN" "http://www.w3.org/Graphics/SVG/1.1/DTD/svg11.dtd"><svg width="100%" height="100%" viewBox="0 0 22 22" version="1.1" xmlns="http://www.w3.org/2000/svg" xmlns:xlink="http://www.w3.org/1999/xlink" xml:space="preserve" style="fill-rule:evenodd;clip-rule:evenodd;stroke-linejoin:round;stroke-miterlimit:1.41421;"><clipPath id="_clip1"><path d="M4.125,15.125l1.375,0l0,1.375l-1.375,0l0,-1.375Zm0.688,2.75c1.139,0 2.062,-0.923 2.062,-2.062c0,-1.139 -0.923,-2.063 -2.063,-2.063c-1.139,0 -2.062,0.924 -2.062,2.063c0,1.139 0.923,2.062 2.063,2.062Zm4.812,-2.75l1.375,0l0,1.375l-1.375,0l0,-1.375Zm0.688,2.75c1.139,0 2.062,-0.923 2.062,-2.062c0,-1.139 -0.923,-2.063 -2.062,-2.063c-1.14,0 -2.063,0.924 -2.063,2.063c0,1.139 0.923,2.062 2.063,2.062Zm-6.188,-8.25l1.375,0l0,1.375l-1.375,0l0,-1.375Zm0.687,2.75c1.14,0 2.063,-0.923 2.063,-2.063c0,-1.138 -0.923,-2.062 -2.063,-2.062c-1.139,0 -2.062,0.924 -2.062,2.063c0,1.139 0.923,2.062 2.062,2.062Zm4.813,-2.75l1.375,0l0,1.375l-1.375,0l0,-1.375Zm0.688,2.75c1.139,0 2.062,-0.923 2.062,-2.063c0,-1.138 -0.923,-2.062 -2.062,-2.062c-1.14,0 -2.063,0.924 -2.063,2.063c0,1.139 0.923,2.062 2.063,2.062Zm8.937,-8.25l-17.875,0l0,-1.375c0,-0.759 0.616,-1.375 1.375,-1.375l15.125,0c0.759,0 1.375,0.616 1.375,1.375l0,1.375Zm0,15.125c0,0.759 -0.616,1.375 -1.375,1.375l-15.125,0c-0.759,0 -1.375,-0.616 -1.375,-1.375l0,-13.75l17.875,0l0,13.75Zm-1.375,-19.25l-15.125,0c-1.519,0 -2.75,1.231 -2.75,2.75l0,16.5c0,1.519 1.231,2.75 2.75,2.75l15.125,0c1.519,0 2.75,-1.231 2.75,-2.75l0,-16.5c0,-1.519 -1.231,-2.75 -2.75,-2.75Zm-2.75,15.125l1.375,0l0,1.375l-1.375,0l0,-1.375Zm0.688,2.75c1.139,0 2.062,-0.923 2.062,-2.062c0,-1.139 -0.923,-2.063 -2.062,-2.063c-1.14,0 -2.063,0.924 -2.063,2.063c0,1.139 0.923,2.062 2.063,2.062Zm-0.688,-8.25l1.375,0l0,1.375l-1.375,0l0,-1.375Zm0.688,2.75c1.139,0 2.062,-0.923 2.062,-2.063c0,-1.138 -0.923,-2.062 -2.062,-2.062c-1.14,0 -2.063,0.924 -2.063,2.063c0,1.139 0.923,2.062 2.063,2.062Z"/></clipPath><g clip-path="url(#_clip1)"><rect x="-5.5" y="-5.5" width="31.625" height="33" style="fill:#fffffe;fill-rule:nonzero;"/></g></svg>