<?xml version="1.0" encoding="UTF-8" standalone="no"?><!DOCTYPE svg PUBLIC "-//W3C//DTD SVG 1.1//EN" "http://www.w3.org/Graphics/SVG/1.1/DTD/svg11.dtd"><svg width="100%" height="100%" viewBox="0 0 22 22" version="1.1" xmlns="http://www.w3.org/2000/svg" xmlns:xlink="http://www.w3.org/1999/xlink" xml:space="preserve" style="fill-rule:evenodd;clip-rule:evenodd;stroke-linejoin:round;stroke-miterlimit:1.41421;"><clipPath id="_clip1"><path d="M3.667,14.667c-1.215,0 -2.2,-0.985 -2.2,-2.2c0,-1.215 0.985,-2.2 2.2,-2.2c1.215,0 2.2,0.985 2.2,2.2c0,1.215 -0.985,2.2 -2.2,2.2Zm0.733,-5.793l0,-8.141c0,-0.404 -0.328,-0.733 -0.733,-0.733c-0.406,0 -0.734,0.329 -0.734,0.733l0,8.141c-1.673,0.34 -2.933,1.819 -2.933,3.593c0,1.774 1.26,3.253 2.933,3.592l0,3.741c0,0.406 0.328,0.733 0.734,0.733c0.405,0 0.733,-0.327 0.733,-0.733l0,-3.741c1.673,-0.339 2.933,-1.818 2.933,-3.592c0,-1.774 -1.26,-3.253 -2.933,-3.593Zm6.6,-1.541c-1.215,0 -2.2,-0.985 -2.2,-2.2c0,-1.214 0.985,-2.2 2.2,-2.2c1.215,0 2.2,0.986 2.2,2.2c0,1.215 -0.985,2.2 -2.2,2.2Zm0.733,-5.792l0,-0.808c0,-0.404 -0.327,-0.733 -0.733,-0.733c-0.406,0 -0.733,0.329 -0.733,0.733l0,0.808c-1.674,0.339 -2.934,1.818 -2.934,3.592c0,1.774 1.26,3.253 2.934,3.593l0,11.074c0,0.406 0.327,0.733 0.733,0.733c0.406,0 0.733,-0.327 0.733,-0.733l0,-11.074c1.674,-0.34 2.934,-1.819 2.934,-3.593c0,-1.774 -1.26,-3.253 -2.934,-3.592Zm6.6,16.059c-1.215,0 -2.2,-0.985 -2.2,-2.2c0,-1.214 0.985,-2.2 2.2,-2.2c1.215,0 2.2,0.986 2.2,2.2c0,1.215 -0.985,2.2 -2.2,2.2Zm0.734,-5.793l0,-11.074c0,-0.404 -0.328,-0.733 -0.734,-0.733c-0.405,0 -0.733,0.329 -0.733,0.733l0,11.074c-1.673,0.34 -2.933,1.819 -2.933,3.593c0,1.774 1.26,3.253 2.933,3.593l0,0.807c0,0.406 0.328,0.733 0.733,0.733c0.406,0 0.734,-0.327 0.734,-0.733l0,-0.807c1.673,-0.34 2.933,-1.819 2.933,-3.593c0,-1.774 -1.26,-3.253 -2.933,-3.593Z"/></clipPath><g clip-path="url(#_clip1)"><rect x="-5.133" y="-5.133" width="32.267" height="30.8" style="fill:#fffffe;fill-rule:nonzero;"/></g></svg>