<?xml version="1.0" encoding="UTF-8" standalone="no"?>
<!DOCTYPE svg PUBLIC "-//W3C//DTD SVG 1.1//EN" "http://www.w3.org/Graphics/SVG/1.1/DTD/svg11.dtd">
<svg width="100%" height="100%" viewBox="0 0 22 22" version="1.1" xmlns="http://www.w3.org/2000/svg" xmlns:xlink="http://www.w3.org/1999/xlink" xml:space="preserve" xmlns:serif="http://www.serif.com/" style="fill-rule:evenodd;clip-rule:evenodd;stroke-linejoin:round;stroke-miterlimit:1.41421;">
    <clipPath id="_clip1">
        <path d="M3.667,14.667C2.452,14.667 1.467,13.682 1.467,12.467C1.467,11.252 2.452,10.267 3.667,10.267C4.882,10.267 5.867,11.252 5.867,12.467C5.867,13.682 4.882,14.667 3.667,14.667ZM4.4,8.874L4.4,0.733C4.4,0.329 4.072,0 3.667,0C3.261,0 2.933,0.329 2.933,0.733L2.933,8.874C1.26,9.214 0,10.693 0,12.467C0,14.241 1.26,15.72 2.933,16.059L2.933,19.8C2.933,20.206 3.261,20.533 3.667,20.533C4.072,20.533 4.4,20.206 4.4,19.8L4.4,16.059C6.073,15.72 7.333,14.241 7.333,12.467C7.333,10.693 6.073,9.214 4.4,8.874ZM11,7.333C9.785,7.333 8.8,6.348 8.8,5.133C8.8,3.919 9.785,2.933 11,2.933C12.215,2.933 13.2,3.919 13.2,5.133C13.2,6.348 12.215,7.333 11,7.333ZM11.733,1.541L11.733,0.733C11.733,0.329 11.406,0 11,0C10.594,0 10.267,0.329 10.267,0.733L10.267,1.541C8.593,1.88 7.333,3.359 7.333,5.133C7.333,6.907 8.593,8.386 10.267,8.726L10.267,19.8C10.267,20.206 10.594,20.533 11,20.533C11.406,20.533 11.733,20.206 11.733,19.8L11.733,8.726C13.407,8.386 14.667,6.907 14.667,5.133C14.667,3.359 13.407,1.88 11.733,1.541ZM18.333,17.6C17.118,17.6 16.133,16.615 16.133,15.4C16.133,14.186 17.118,13.2 18.333,13.2C19.548,13.2 20.533,14.186 20.533,15.4C20.533,16.615 19.548,17.6 18.333,17.6ZM19.067,11.807L19.067,0.733C19.067,0.329 18.739,0 18.333,0C17.928,0 17.6,0.329 17.6,0.733L17.6,11.807C15.927,12.147 14.667,13.626 14.667,15.4C14.667,17.174 15.927,18.653 17.6,18.993L17.6,19.8C17.6,20.206 17.928,20.533 18.333,20.533C18.739,20.533 19.067,20.206 19.067,19.8L19.067,18.993C20.74,18.653 22,17.174 22,15.4C22,13.626 20.74,12.147 19.067,11.807Z"/>
    </clipPath>
    <g clip-path="url(#_clip1)">
        <rect x="-5.133" y="-5.133" width="32.267" height="30.8" style="fill:rgb(87,95,113);"/>
    </g>
</svg>
