<?xml version="1.0" encoding="UTF-8" standalone="no"?>
<!DOCTYPE svg PUBLIC "-//W3C//DTD SVG 1.1//EN" "http://www.w3.org/Graphics/SVG/1.1/DTD/svg11.dtd">
<svg width="100%" height="100%" viewBox="0 0 22 22" version="1.1" xmlns="http://www.w3.org/2000/svg" xmlns:xlink="http://www.w3.org/1999/xlink" xml:space="preserve" xmlns:serif="http://www.serif.com/" style="fill-rule:evenodd;clip-rule:evenodd;stroke-linejoin:round;stroke-miterlimit:1.41421;">
    <clipPath id="_clip1">
        <path d="M16.507,5.52L5.52,5.52C5.14,5.52 4.833,5.827 4.833,6.206C4.833,6.586 5.14,6.893 5.52,6.893L16.507,6.893C16.887,6.893 17.194,6.586 17.194,6.206C17.194,5.827 16.887,5.52 16.507,5.52ZM20.627,19.254C20.627,20.008 19.881,20.635 19.128,20.635L2.755,20.635C2.002,20.635 1.39,20.024 1.39,19.269L1.39,2.886C1.39,2.131 2.019,1.399 2.773,1.399L19.254,1.399C20.008,1.399 20.627,2.019 20.627,2.773L20.627,19.254ZM2.773,0.026C1.266,0.026 0.026,1.378 0.026,2.886L0.026,19.269C0.026,20.778 1.248,22 2.755,22L19.128,22C20.635,22 22,20.762 22,19.254L22,2.773C22,1.265 20.76,0.026 19.254,0.026L2.773,0.026ZM8.862,13.76L5.199,13.76C5.073,13.76 4.97,14.068 4.97,14.447C4.97,14.826 5.073,15.133 5.199,15.133L8.862,15.133C8.988,15.133 9.09,14.826 9.09,14.447C9.09,14.068 8.988,13.76 8.862,13.76ZM8.862,9.914L5.199,9.914C5.073,9.914 4.97,10.222 4.97,10.601C4.97,10.981 5.073,11.288 5.199,11.288L8.862,11.288C8.988,11.288 9.09,10.981 9.09,10.601C9.09,10.222 8.988,9.914 8.862,9.914Z"/>
    </clipPath>
    <g clip-path="url(#_clip1)">
        <rect x="-5.468" y="-5.468" width="32.962" height="32.962" style="fill:rgb(87,95,113);"/>
    </g>
    <clipPath id="_clip2">
        <path d="M12.112,9.914L16.507,9.914C17.114,9.914 17.606,10.406 17.606,11.013L17.606,14.309C17.606,14.916 17.114,15.408 16.507,15.408L12.112,15.408C11.505,15.408 11.013,14.916 11.013,14.309L11.013,11.013C11.013,10.406 11.505,9.914 12.112,9.914Z"/>
    </clipPath>
    <g clip-path="url(#_clip2)">
        <path d="M12.112,9.914L16.507,9.914C17.114,9.914 17.606,10.406 17.606,11.013L17.606,14.309C17.606,14.916 17.114,15.408 16.507,15.408L12.112,15.408C11.505,15.408 11.013,14.916 11.013,14.309L11.013,11.013C11.013,10.406 11.505,9.914 12.112,9.914Z" style="fill:rgb(87,95,113);fill-rule:nonzero;"/>
    </g>
</svg>
