<?xml version="1.0" encoding="UTF-8" standalone="no"?><!DOCTYPE svg PUBLIC "-//W3C//DTD SVG 1.1//EN" "http://www.w3.org/Graphics/SVG/1.1/DTD/svg11.dtd"><svg width="100%" height="100%" viewBox="0 0 22 22" version="1.1" xmlns="http://www.w3.org/2000/svg" xmlns:xlink="http://www.w3.org/1999/xlink" xml:space="preserve" style="fill-rule:evenodd;clip-rule:evenodd;stroke-linejoin:round;stroke-miterlimit:1.41421;"><clipPath id="_clip1"><path d="M19.629,14.859l-9.316,-3.172l0,-10.312c5.348,-0.027 10.236,4.594 10.236,10.018c0,1.414 -0.37,2.488 -0.92,3.466Zm-9.66,5.766c-4.746,0 -8.594,-3.847 -8.594,-8.594c0,-4.324 3.38,-7.99 7.563,-8.594l0,9.233l8.737,3.043c-1.163,2.938 -4.5,4.912 -7.706,4.912Zm0.344,-20.625l-1.375,0l0,2.063c-5.005,0.542 -8.938,4.83 -8.938,9.968c0,5.506 4.463,9.969 9.969,9.969c4.06,0 7.548,-2.432 9.101,-5.915l1.555,0.415c0.751,-1.234 1.375,-2.986 1.375,-5.107c0,-6.292 -5.497,-11.393 -11.687,-11.393Z"/></clipPath><g clip-path="url(#_clip1)"><rect x="-5.5" y="-5.5" width="33" height="33" style="fill:#fffffe;fill-rule:nonzero;"/></g></svg>